<svg xmlns="http://www.w3.org/2000/svg" xmlns:xlink="http://www.w3.org/1999/xlink" width="80" height="30" viewBox="0 0 80 30">
  <defs>
    <linearGradient id="linear-gradient" x1="0.5" x2="0.5" y2="1" gradientUnits="objectBoundingBox">
      <stop offset="0" stop-color="#ffffc1"/>
      <stop offset="0.289" stop-color="#fada8e"/>
      <stop offset="0.487" stop-color="#dab672"/>
      <stop offset="0.797" stop-color="#b88849"/>
      <stop offset="1" stop-color="#e0b66c"/>
    </linearGradient>
  </defs>
  <g id="logo" transform="translate(-155 -45)">
    <rect id="矩形_39" data-name="矩形 39" width="80" height="30" transform="translate(155 45)" fill="rgba(255,255,255,0)"/>
    <g id="联合_6" data-name="联合 6" transform="translate(-45 26)" fill="url(#linear-gradient)">
      <path d="M 263.2960205078125 47.12630081176758 C 261.2147827148438 47.12630081176758 259.7538757324219 46.06449890136719 258.829833984375 43.88021850585938 L 258.8170776367188 43.88216018676758 L 258.648193359375 43.41643142700195 C 258.0105895996094 41.65829086303711 257.7006530761719 39.34088134765625 257.7006530761719 36.33176040649414 C 257.7006530761719 33.35739898681641 258.1031799316406 30.42310905456543 258.8050537109375 28.28128051757813 C 259.2422790527344 26.94708061218262 260.2114868164063 24.70882034301758 261.7902221679688 24.70882034301758 C 262.5190734863281 24.70882034301758 263.0261840820313 25.04019927978516 263.3860778808594 25.75168991088867 C 263.7460021972656 26.46320915222168 263.9284973144531 27.51255989074707 263.9284973144531 28.87058067321777 C 263.9284973144531 31.59190940856934 263.4988403320313 34.67531967163086 262.7187194824219 37.55279159545898 C 261.9754943847656 40.29421997070313 260.9713439941406 42.60047149658203 259.9637451171875 43.88018798828125 L 259.76318359375 44.13492965698242 L 259.9139099121094 44.42197799682617 C 260.6771240234375 45.87520980834961 261.8638305664063 46.612060546875 263.4410705566406 46.612060546875 C 265.2499084472656 46.612060546875 267.0722351074219 45.22518539428711 267.792724609375 44.23697662353516 C 267.9294128417969 44.06075668334961 268.1011047363281 44.05279159545898 268.102783203125 44.05279159545898 C 268.1179809570313 44.05279159545898 268.1308898925781 44.05352401733398 268.1417236328125 44.05463790893555 C 268.0888977050781 44.64419174194336 267.4712219238281 45.39149475097656 266.5067749023438 46.02508926391602 C 265.4728698730469 46.70433807373047 264.2425842285156 47.12630081176758 263.2960205078125 47.12630081176758 Z M 261.8984985351563 25.49919891357422 C 260.8703918457031 25.49919891357422 259.9937133789063 26.80769920349121 259.2927551269531 29.38833999633789 C 258.7103271484375 31.53264045715332 258.3626098632813 34.20462799072266 258.3626098632813 36.53591918945313 C 258.3626098632813 39.00770950317383 258.8323974609375 41.73146057128906 259.1659851074219 42.87606048583984 L 259.4400939941406 43.81655883789063 L 260.0409240722656 43.04283142089844 C 261.2799682617188 41.44723892211914 262.0745544433594 38.77265930175781 262.5229797363281 36.80992126464844 C 263.1022644042969 34.27426147460938 263.4345092773438 31.45489883422852 263.4345092773438 29.07473945617676 C 263.4345092773438 27.34621047973633 263.031005859375 25.49919891357422 261.8984985351563 25.49919891357422 Z M 203.8461456298828 46.75674057006836 C 203.6607818603516 46.75674057006836 203.5684204101563 46.7221794128418 203.5430603027344 46.7017707824707 C 203.5356292724609 46.69577789306641 203.5238494873047 46.66135025024414 203.5238494873047 46.59442901611328 C 203.5238494873047 46.50458908081055 203.5537872314453 46.14192962646484 203.8310699462891 44.71831893920898 L 205.4903411865234 36.45790863037109 L 205.5865783691406 35.9787712097168 L 205.1097717285156 35.87160873413086 C 203.4628753662109 35.50148010253906 201.4997100830078 34.8260383605957 201.4997100830078 33.71020889282227 C 201.4997100830078 33.69509887695313 201.5 33.67957305908203 201.5005645751953 33.66359329223633 C 202.5543823242188 34.3899040222168 203.7846527099609 34.93794631958008 205.1689300537109 35.29668045043945 L 205.6804504394531 35.42924118041992 L 205.7845611572266 34.91117858886719 L 206.8809509277344 29.45561981201172 C 207.0691680908203 28.5198802947998 207.1606750488281 27.86373901367188 207.1606750488281 27.44976997375488 C 207.1606750488281 27.1893253326416 207.1129455566406 26.94018745422363 207.0182342529297 26.70433235168457 C 208.2978820800781 26.25349044799805 208.9122619628906 26.15177917480469 209.2059631347656 26.15177917480469 C 209.4307861328125 26.15177917480469 209.6855621337891 26.15173149108887 209.6864624023438 26.78404235839844 C 209.6824035644531 26.87136077880859 209.6242980957031 27.30620574951172 209.1819305419922 29.44619941711426 L 208.0887603759766 35.00127029418945 L 207.9713592529297 35.59780883789063 L 208.579345703125 35.59780883789063 C 211.7086944580078 35.59780883789063 214.3122100830078 34.80926895141602 216.3175964355469 33.25407791137695 C 218.3624420166016 31.66828918457031 219.3992767333984 29.60391044616699 219.3992767333984 27.1182689666748 C 219.3992767333984 25.68004989624023 218.8260955810547 24.50482940673828 217.6956634521484 23.62525939941406 C 216.6044311523438 22.77560997009277 215.1579437255859 22.34474945068359 213.3965148925781 22.34474945068359 C 208.6346130371094 22.34474945068359 204.7061767578125 24.23343086242676 201.7052001953125 27.96232414245605 C 201.6564636230469 27.74896621704102 201.6419525146484 27.59934234619141 201.6419525146484 27.49682998657227 C 201.6419525146484 26.12532997131348 202.9857482910156 24.78344917297363 205.6360168457031 23.50848007202148 C 208.4067687988281 22.17555046081543 211.4487609863281 21.49970054626465 214.677490234375 21.49970054626465 C 217.0762176513672 21.49970054626465 218.8837890625 21.93400001525879 220.0500183105469 22.7905387878418 C 221.1842498779297 23.62359046936035 221.7356109619141 24.85356903076172 221.7356109619141 26.5507698059082 C 221.7356109619141 27.80959892272949 221.4266662597656 29.00545883178711 220.8173370361328 30.1051197052002 C 220.1996612548828 31.21983909606934 219.2540588378906 32.27302932739258 218.0067749023438 33.23545837402344 C 215.4953002929688 35.17453384399414 212.5164337158203 36.15814971923828 209.1530914306641 36.15910720825195 L 208.2894439697266 36.14326858520508 L 207.8733673095703 36.13563919067383 L 207.7903289794922 36.54341125488281 L 206.3803100585938 43.46685791015625 C 206.0982360839844 44.85221862792969 206.0656127929688 45.29401016235352 206.0656127929688 45.50580978393555 C 206.0656127929688 45.72495269775391 206.0962066650391 45.95317840576172 206.1568298339844 46.18801116943359 C 205.3015594482422 46.56560134887695 204.5257415771484 46.75674057006836 203.8461456298828 46.75674057006836 Z M 240.6743469238281 46.46538162231445 C 239.0791168212891 46.46538162231445 238.0059509277344 45.6613883972168 237.3935089111328 44.00746154785156 L 237.2941436767578 43.73911666870117 L 237.2108612060547 43.43780136108398 C 236.9630279541016 42.53870010375977 236.8373718261719 41.45367813110352 236.8373718261719 40.2128791809082 C 236.8373718261719 38.36412048339844 237.1204376220703 36.49929046630859 237.3578948974609 35.26044845581055 L 237.4755859375 34.64643096923828 L 236.8507080078125 34.66658020019531 C 235.7265625 34.70283126831055 234.4517822265625 34.83317947387695 232.8389129638672 35.07680130004883 L 232.425048828125 35.13930892944336 L 232.4137725830078 35.55772018432617 C 232.3210144042969 39.00014114379883 231.5083923339844 42.00360870361328 230.1256256103516 44.0148811340332 L 230.0082397460938 44.18563079833984 L 230.0460357666016 44.38936996459961 C 230.1555480957031 44.97957992553711 230.8473663330078 46.09577941894531 232.6818237304688 46.09577941894531 C 234.0870513916016 46.09577941894531 234.9320373535156 45.27431106567383 235.5490417480469 44.67449951171875 C 235.8945159912109 44.338623046875 236.1943054199219 44.04718780517578 236.4422607421875 44.03005599975586 L 236.4307250976563 44.10322952270508 C 236.2302093505859 45.37538146972656 234.1487274169922 46.46538162231445 232.5853881835938 46.46538162231445 C 230.9625701904297 46.46538162231445 229.8791046142578 45.63296127319336 229.2730712890625 43.92055892944336 L 229.2582397460938 43.92229461669922 L 229.1336059570313 43.47996139526367 C 228.8780212402344 42.57281875610352 228.7484130859375 41.47360992431641 228.7484130859375 40.2128791809082 C 228.7484130859375 39.05463027954102 228.8586883544922 37.76226806640625 229.0761566162109 36.37170028686523 L 229.18212890625 35.69398880004883 L 228.5045166015625 35.80051040649414 C 227.9920043945313 35.88106918334961 227.2573089599609 35.9881706237793 226.7960357666016 35.9881706237793 C 226.7855834960938 35.9881706237793 226.7752227783203 35.988037109375 226.7649536132813 35.9877815246582 C 226.7249755859375 35.79257965087891 226.7173156738281 35.66663360595703 226.7173156738281 35.59885787963867 C 226.7173156738281 35.55453109741211 226.7208709716797 35.51604843139648 226.7278594970703 35.48448944091797 L 226.8809204101563 34.79399871826172 L 226.1789093017578 34.88000106811523 C 224.7657775878906 35.05313110351563 223.3492584228516 35.29924011230469 222.0995025634766 35.5163688659668 C 220.6423950195313 35.76953125 219.3839874267578 35.9881706237793 218.7070617675781 35.9881706237793 C 218.6966705322266 35.9881706237793 218.6863708496094 35.98804092407227 218.6761932373047 35.98779296875 C 218.6366271972656 35.79347229003906 218.6290283203125 35.66712188720703 218.6290283203125 35.59885787963867 C 218.6290283203125 35.38410949707031 218.6290283203125 35.32638931274414 219.5303802490234 35.08757781982422 C 219.7533416748047 35.02851867675781 220.0060272216797 34.9615592956543 220.2810363769531 34.87371826171875 C 220.7989654541016 34.70687866210938 221.2298278808594 34.55611801147461 221.6099700927734 34.42311859130859 C 222.2985382080078 34.18220138549805 222.7960205078125 34.00812911987305 223.0683135986328 34.00812911987305 C 223.1666259765625 34.00812911987305 223.2594909667969 34.00812911987305 223.4459228515625 34.48373031616211 L 223.5823516845703 34.83174133300781 L 223.9547424316406 34.79935836791992 L 229.2076721191406 34.34259033203125 L 229.5784606933594 34.31034851074219 L 229.6539611816406 33.9459114074707 C 229.6575622558594 33.92900085449219 230.0531768798828 32.13401031494141 231.2842864990234 32.13401031494141 C 231.4282073974609 32.13401031494141 231.8105163574219 32.13401031494141 232.0801239013672 32.81526947021484 C 232.242431640625 33.22537994384766 232.2668762207031 33.6485481262207 232.2670745849609 33.6527099609375 L 232.2901000976563 34.1285514831543 L 232.7664947509766 34.1285514831543 C 232.7926177978516 34.1285514831543 232.8466186523438 34.12651824951172 233.2480773925781 34.11045074462891 C 234.1514434814453 34.07429122924805 236.0311889648438 33.99903869628906 237.3701019287109 33.97093963623047 L 237.7202301025391 33.96358871459961 L 237.8329772949219 33.63203811645508 C 238.0232543945313 33.07257080078125 238.4763641357422 32.13401031494141 239.3732604980469 32.13401031494141 C 240.2635192871094 32.13401031494141 240.3546142578125 33.63880920410156 240.3554382324219 33.65401077270508 L 240.3808441162109 34.12720108032227 L 240.8547821044922 34.1285514831543 C 240.8809051513672 34.1285514831543 240.9349060058594 34.12651824951172 241.3363342285156 34.11045074462891 C 242.3617095947266 34.06940078735352 245.0854797363281 33.96036911010742 246.2881469726563 33.96036911010742 C 248.7452545166016 33.96036911010742 249.3346557617188 34.3022575378418 249.4454345703125 34.39016723632813 C 249.4358062744141 34.41569900512695 249.4083404541016 34.44314956665039 249.3300018310547 34.47771835327148 C 249.1969146728516 34.53643798828125 248.9926452636719 34.57011795043945 248.7695770263672 34.57011795043945 C 248.306640625 34.57011795043945 247.6914367675781 34.53049087524414 246.9790802001953 34.48460006713867 C 245.9096374511719 34.41571044921875 244.5786895751953 34.32997894287109 243.0593414306641 34.32997894287109 C 242.4632873535156 34.32997894287109 242.0502777099609 34.34545135498047 241.5382995605469 34.37216949462891 L 241.4092254638672 34.37891006469727 L 241.2995910644531 34.44736099243164 C 241.2224273681641 34.49552154541016 241.0965728759766 34.53313827514648 240.9451904296875 34.55329132080078 L 240.5137176513672 34.61071014404297 L 240.5111694335938 35.04597854614258 C 240.4896392822266 38.70621871948242 239.6737823486328 41.89144134521484 238.2138977050781 44.0148811340332 L 238.0965118408203 44.18563079833984 L 238.1343078613281 44.38936996459961 C 238.2438201904297 44.97957992553711 238.9356384277344 46.09577941894531 240.7701110839844 46.09577941894531 C 242.1758270263672 46.09577941894531 243.020751953125 45.27423095703125 243.6376800537109 44.67435073852539 C 243.9936676025391 44.32820892333984 244.3011169433594 44.02925872802734 244.5533599853516 44.02925872802734 C 244.5623016357422 44.02925872802734 244.5704498291016 44.02943420410156 244.5778350830078 44.02972793579102 L 244.6308746337891 44.17540740966797 L 244.2601776123047 44.74089050292969 C 243.6368408203125 45.69178009033203 242.0282440185547 46.46538162231445 240.6743469238281 46.46538162231445 Z M 240.0132446289063 34.52774810791016 L 239.5228576660156 34.5341682434082 L 238.5714874267578 34.546630859375 L 238.21240234375 34.55133819580078 L 238.1021728515625 34.89311981201172 C 238.0697021484375 34.99377822875977 237.3070983886719 37.38943862915039 237.3070983886719 40.09244918823242 C 237.3070983886719 41.12042999267578 237.3669586181641 41.6314811706543 237.5982513427734 42.57801818847656 L 237.9243011474609 43.91228103637695 L 238.5323028564453 42.68066024780273 C 239.3311309814453 41.06253051757813 240.0418853759766 37.27196884155273 240.0418853759766 35.41893005371094 L 240.0418853759766 35.41082000732422 L 240.0416259765625 35.4027214050293 L 240.0291442871094 35.01792144775391 L 240.0132446289063 34.52774810791016 Z M 231.9710083007813 35.21162796020508 L 231.3601684570313 35.31473159790039 C 230.9566955566406 35.38283920288086 230.563720703125 35.45111083984375 230.1857299804688 35.51678085327148 L 230.1422424316406 35.52434158325195 L 229.8176422119141 35.58073043823242 L 229.7413940429688 35.90124893188477 C 229.5026702880859 36.90478897094727 229.2181091308594 38.44654083251953 229.2181091308594 40.09244918823242 C 229.2181091308594 41.11819076538086 229.2781219482422 41.62924957275391 229.5099792480469 42.57801818847656 L 229.8360290527344 43.91225051879883 L 230.4440307617188 42.68066787719727 C 231.192626953125 41.16429138183594 231.8527679443359 37.81341934204102 231.94287109375 35.83045959472656 L 231.9710083007813 35.21162796020508 Z M 231.1517486572266 32.82818984985352 C 230.9645233154297 32.82818984985352 230.6901550292969 32.90243911743164 230.4461975097656 33.25619125366211 L 229.7552337646484 34.25809860229492 L 230.9509887695313 34.03128814697266 C 231.0319976806641 34.01591873168945 231.1011810302734 34.00812911987305 231.1566009521484 34.00812911987305 C 231.1752014160156 34.00812911987305 231.1923828125 34.00910949707031 231.2076873779297 34.01103973388672 L 231.96923828125 34.10702133178711 L 231.7492218017578 33.37165069580078 C 231.6077575683594 32.89878845214844 231.3141632080078 32.82818984985352 231.1517486572266 32.82818984985352 Z M 239.24072265625 32.82818984985352 C 239.0789031982422 32.82818984985352 238.8387908935547 32.88441848754883 238.6138458251953 33.15227127075195 L 237.9546203613281 33.93722152709961 L 238.9790191650391 33.97351837158203 C 239.0966644287109 33.97768783569336 239.2125396728516 33.9828987121582 239.3234100341797 33.98902893066406 L 240.05126953125 34.02922821044922 L 239.8266754150391 33.33573913574219 C 239.6836547851563 32.89413070678711 239.3981628417969 32.82818984985352 239.24072265625 32.82818984985352 Z M 273.4209594726563 46.3089714050293 C 272.2189636230469 46.3089714050293 271.2178344726563 46.05017852783203 270.4454345703125 45.53979110717773 C 269.8040466308594 45.1159782409668 269.3459167480469 44.52719116210938 269.12060546875 43.83705902099609 L 268.3663024902344 43.95182800292969 L 269.0619201660156 43.63412094116211 C 269.0003967285156 43.39017105102539 268.9691772460938 43.14043807983398 268.9691772460938 42.89186859130859 C 268.9691772460938 42.21928024291992 269.1826477050781 41.5013313293457 269.5401916503906 40.97134017944336 C 269.8084716796875 40.57371139526367 270.2814025878906 40.09970855712891 271.010986328125 40.09970855712891 C 271.5863647460938 40.09970855712891 272.2582702636719 40.41880035400391 272.2582702636719 41.31811141967773 C 272.2582702636719 42.12287139892578 271.1013793945313 43.29872894287109 270.3721923828125 43.85086822509766 L 269.9983520507813 44.13393783569336 L 270.256591796875 44.52537155151367 C 270.2911682128906 44.57770919799805 271.128173828125 45.80717849731445 273.2641296386719 45.80717849731445 C 275.2008972167969 45.80717849731445 276.715087890625 45.02922058105469 277.4863586425781 44.30117034912109 C 277.6941833496094 44.10140228271484 277.8576049804688 44.04185485839844 277.9406433105469 44.02418899536133 C 277.8255004882813 45.42221069335938 274.9429016113281 46.3089714050293 273.4209594726563 46.3089714050293 Z M 270.8187866210938 40.81811141967773 C 269.9414978027344 40.81811141967773 269.4028015136719 41.85099792480469 269.4028015136719 42.59151077270508 C 269.4028015136719 42.73580932617188 269.4250793457031 42.88335037231445 269.4708862304688 43.04256057739258 L 269.6475830078125 43.65684127807617 L 270.2012634277344 43.33740997314453 C 270.3116149902344 43.27373123168945 270.66064453125 42.97851943969727 270.9194030761719 42.72994995117188 C 271.4253540039063 42.24396896362305 271.6317443847656 41.92195129394531 271.6317443847656 41.61846923828125 C 271.6317443847656 41.19210815429688 271.2518615722656 40.81811141967773 270.8187866210938 40.81811141967773 Z M 254.5450439453125 45.99684906005859 C 253.3741302490234 45.99684906005859 252.5133056640625 45.55099105834961 251.9864807128906 44.67164993286133 C 251.5884094238281 44.00725936889648 251.526611328125 43.32878875732422 251.5261077880859 43.32212829589844 L 250.5275726318359 43.36040115356445 C 250.5275726318359 43.26324844360352 250.5569915771484 43.19348907470703 250.5603485107422 43.18585968017578 C 250.5113677978516 43.29732894897461 250.115478515625 44.00679016113281 249.4164428710938 44.68766784667969 C 248.5410766601563 45.54030990600586 247.5915069580078 45.97262954711914 246.5941467285156 45.97262954711914 C 245.6615447998047 45.97262954711914 245.1851959228516 45.64862823486328 245.1783142089844 45.00962829589844 L 245.1733245849609 44.54578018188477 L 245.4573974609375 43.98492813110352 C 246.0299072265625 42.85466003417969 247.4365386962891 41.63816833496094 249.1720581054688 41.63816833496094 C 249.3141937255859 41.63816833496094 249.3817596435547 41.6612548828125 249.4138946533203 41.69602203369141 C 249.3578491210938 41.70241165161133 249.2767791748047 41.7074089050293 249.1602630615234 41.7074089050293 C 247.5623779296875 41.7074089050293 246.5035705566406 43.55931854248047 246.5035705566406 44.30990982055664 C 246.5035705566406 44.68371963500977 246.7768707275391 45.0860481262207 247.3768920898438 45.0860481262207 C 248.6361999511719 45.0860481262207 250.3426818847656 43.40942001342773 251.3089294433594 41.83187103271484 L 251.3391876220703 41.78247833251953 L 251.3573455810547 41.72748947143555 C 251.3587493896484 41.72343063354492 251.5931854248047 41.08520889282227 251.9553527832031 41.08520889282227 C 252.0953063964844 41.08520889282227 252.1360015869141 41.11569976806641 252.1363372802734 41.11600875854492 C 252.1363983154297 41.11611938476563 252.1651458740234 41.15380859375 252.1659088134766 41.30034637451172 L 252.1536102294922 41.76153945922852 L 252.1534271240234 41.7681999206543 L 252.1534271240234 41.77486801147461 C 252.1534271240234 44.07400131225586 253.0791320800781 45.44662094116211 254.6296997070313 45.44662094116211 C 256.0656127929688 45.44662094116211 257.2047729492188 44.50125122070313 257.4185791015625 44.31172943115234 L 257.4261169433594 44.30504989624023 L 257.4333801269531 44.29806137084961 C 257.6868896484375 44.05437469482422 257.855224609375 44.01935958862305 257.9227294921875 44.01694488525391 L 257.9241638183594 44.01784896850586 L 257.8717956542969 44.02581024169922 C 257.7611083984375 45.14471817016602 255.5895690917969 45.99684906005859 254.5450439453125 45.99684906005859 Z M 224.9793701171875 45.99684906005859 C 223.8213806152344 45.99684906005859 222.9662475585938 45.56072998046875 222.4377593994141 44.70061111450195 C 222.0232849121094 44.02605056762695 221.9601898193359 43.3272590637207 221.9596099853516 43.32027816772461 L 220.9612121582031 43.36040115356445 C 220.9612121582031 43.26327896118164 220.9906158447266 43.19356155395508 220.9939575195313 43.18592834472656 C 220.9449920654297 43.29740142822266 220.5492401123047 44.00687026977539 219.850341796875 44.68767929077148 C 218.9750671386719 45.54030990600586 218.0254211425781 45.97262954711914 217.0277709960938 45.97262954711914 C 216.0887298583984 45.97262954711914 215.6125793457031 45.64373016357422 215.6125793457031 44.99505996704102 C 215.6125793457031 43.66944122314453 217.4014892578125 41.63816833496094 219.6056823730469 41.63816833496094 C 219.7462310791016 41.63816833496094 219.8140563964844 41.66167068481445 219.8467864990234 41.69612121582031 C 219.7906951904297 41.70246505737305 219.7097930908203 41.7074089050293 219.5938720703125 41.7074089050293 C 217.9959869384766 41.7074089050293 216.9371948242188 43.55931854248047 216.9371948242188 44.30990982055664 C 216.9371948242188 44.68371963500977 217.2107086181641 45.0860481262207 217.8112030029297 45.0860481262207 C 219.0695495605469 45.0860481262207 220.7762145996094 43.40948867797852 221.7431488037109 41.83200836181641 L 221.7734527587891 41.78256988525391 L 221.7916412353516 41.72750854492188 C 221.8373870849609 41.59370803833008 222.0753326416016 41.08520889282227 222.3889770507813 41.08520889282227 C 222.52880859375 41.08520889282227 222.5698699951172 41.11565017700195 222.5702209472656 41.11595916748047 C 222.5702209472656 41.11599731445313 222.5988006591797 41.15402984619141 222.5995330810547 41.30064392089844 L 222.587890625 41.76226806640625 L 222.5877380371094 41.76856994628906 L 222.5877380371094 41.77486801147461 C 222.5877380371094 44.07400131225586 223.51318359375 45.44662094116211 225.0633239746094 45.44662094116211 C 226.4972839355469 45.44662094116211 227.6382904052734 44.50154113769531 227.8524627685547 44.31208038330078 L 227.8604125976563 44.30504989624023 L 227.8680572509766 44.29769134521484 C 228.1175842285156 44.05733871459961 228.2846984863281 44.0202522277832 228.3538055419922 44.01704788208008 L 228.3657989501953 44.02664184570313 L 228.3045959472656 44.03379821777344 C 228.1844787597656 45.14817810058594 226.0178375244141 45.99684906005859 224.9793701171875 45.99684906005859 Z" stroke="none"/>
      <path d="M 204.0649719238281 46.24943923950195 C 204.5245666503906 46.21936798095703 205.0346527099609 46.09637451171875 205.5896301269531 45.88206100463867 C 205.5736389160156 45.75490570068359 205.5656127929688 45.62939834594727 205.5656127929688 45.50580978393555 C 205.5656127929688 45.25268936157227 205.6025238037109 44.78084564208984 205.8903503417969 43.3670654296875 L 207.3003845214844 36.44362258911133 L 207.3708190917969 36.09780120849609 L 207.3633728027344 36.09780120849609 L 207.5981597900391 34.90471267700195 L 208.6904144287109 29.35433387756348 L 208.6913146972656 29.34966659545898 L 208.6922912597656 29.3449878692627 C 209.1066741943359 27.34029197692871 209.1753845214844 26.87074661254883 209.1862945556641 26.7645206451416 C 209.1856384277344 26.71896171569824 209.1830139160156 26.68185234069824 209.1796569824219 26.65217781066895 C 209.0090942382813 26.65716361999512 208.5807647705078 26.71242523193359 207.6258239746094 27.02564430236816 C 207.6490325927734 27.16394233703613 207.6606750488281 27.30537033081055 207.6606750488281 27.44976615905762 C 207.6606750488281 27.90344429016113 207.5686645507813 28.57217788696289 207.3711395263672 29.55414390563965 L 206.2747497558594 35.00970077514648 L 206.1572113037109 35.59455871582031 L 206.1730194091797 35.59811019897461 L 205.9805297851563 36.55637741088867 L 204.3214721679688 44.81581497192383 C 204.1778869628906 45.55306243896484 204.1035003662109 45.99154663085938 204.0649719238281 46.24943923950195 M 246.5941467285156 45.47262191772461 C 246.6558380126953 45.47262191772461 246.7169189453125 45.47065353393555 246.7772216796875 45.46683120727539 C 246.3113861083984 45.26724624633789 246.0035705566406 44.83520889282227 246.0035705566406 44.30990982055664 C 246.0035705566406 44.19860458374023 246.0174865722656 44.08280944824219 246.04248046875 43.9649658203125 C 245.9914703369141 44.04663467407227 245.9450073242188 44.12881469726563 245.9034576416016 44.21085357666016 L 245.6746063232422 44.66265487670898 L 245.6782836914063 45.00424575805664 C 245.6804504394531 45.20560073852539 245.7504272460938 45.26433181762695 245.7803192138672 45.28940963745117 C 245.8459625244141 45.34449005126953 246.0566711425781 45.47262191772461 246.5941467285156 45.47262191772461 M 217.0277709960938 45.47262191772461 C 217.0896148681641 45.47262191772461 217.1507568359375 45.47064971923828 217.2111968994141 45.46681594848633 C 216.7451324462891 45.26722717285156 216.4371948242188 44.83520889282227 216.4371948242188 44.30990982055664 C 216.4371948242188 44.19914627075195 216.4510040283203 44.08383178710938 216.4757995605469 43.96657562255859 C 216.2281494140625 44.36416625976563 216.1125793457031 44.73487091064453 216.1125793457031 44.99506759643555 C 216.1125793457031 45.20254516601563 216.182861328125 45.26242065429688 216.2128601074219 45.28798675537109 C 216.2780151367188 45.34349822998047 216.4878387451172 45.47262191772461 217.0277709960938 45.47262191772461 M 250.8419647216797 43.32918548583984 L 251.8055572509766 43.29225158691406 C 251.7232666015625 42.91219329833984 251.6824188232422 42.53821563720703 251.6647796630859 42.2060432434082 C 251.4560394287109 42.53460311889648 251.1746368408203 42.92841720581055 250.8419647216797 43.32918548583984 M 221.2758636474609 43.32917404174805 L 222.2397003173828 43.29223251342773 C 222.1575164794922 42.91227722167969 222.1166839599609 42.53813934326172 222.0990753173828 42.20598602294922 C 221.8902282714844 42.53453826904297 221.6086883544922 42.92834854125977 221.2758636474609 43.32917404174805 M 227.2446441650391 35.46348571777344 C 227.6300048828125 35.42805480957031 228.0803375244141 35.36104202270508 228.4268493652344 35.30656814575195 L 229.405517578125 35.15270614624023 L 229.407470703125 35.14448928833008 L 230.0566711425781 35.03171157836914 L 230.1055603027344 35.02322006225586 C 230.4826354980469 34.95771026611328 230.8746032714844 34.88961029052734 231.2769470214844 34.82170104980469 L 231.9364166259766 34.71038818359375 L 231.9364929199219 34.70743179321289 L 232.1023559570313 34.68238067626953 L 232.2881011962891 34.65102767944336 L 232.1648406982422 34.63550567626953 L 231.8034820556641 34.63969039916992 L 231.8016204833984 34.58977127075195 L 231.1535034179688 34.50815963745117 C 231.1414184570313 34.50843048095703 231.1080169677734 34.51042938232422 231.044189453125 34.52253341674805 L 230.0119171142578 34.71836471557617 L 230.0007171630859 34.7755126953125 L 229.4652099609375 34.82208251953125 L 228.652587890625 34.97624588012695 L 228.7138519287109 34.88742065429688 L 227.345947265625 35.00636291503906 L 227.2446441650391 35.46348571777344 M 220.7887115478516 35.23366165161133 C 221.1721954345703 35.16999053955078 221.5843048095703 35.098388671875 222.0138702392578 35.02375411987305 C 222.3485412597656 34.96561050415039 222.6951904296875 34.90538024902344 223.050537109375 34.84502792358398 L 222.9804382324219 34.66622161865234 C 222.9581909179688 34.60950469970703 222.9387664794922 34.56423568725586 222.9222259521484 34.52833557128906 C 222.6663665771484 34.58321380615234 222.2147216796875 34.74124145507813 221.775146484375 34.89504241943359 C 221.4822082519531 34.99753952026367 221.1593322753906 35.11050796508789 220.7887115478516 35.23366165161133 M 216.9790802001953 33.3611946105957 C 217.2241363525391 33.19599151611328 217.4650421142578 33.02203369140625 217.7013244628906 32.839599609375 C 220.0795288085938 31.0045337677002 221.2356109619141 28.94743347167969 221.2356109619141 26.55077743530273 C 221.2356109619141 25.02391052246094 220.7509918212891 23.92574501037598 219.7540435791016 23.19353294372559 C 218.7591400146484 22.46282005310059 217.2286529541016 22.06436920166016 215.1998748779297 22.0069465637207 C 216.2861022949219 22.21553421020508 217.2244262695313 22.62467575073242 218.0027008056641 23.23064422607422 C 219.2611694335938 24.2098331451416 219.8992767333984 25.5178108215332 219.8992767333984 27.11826705932617 C 219.8992767333984 29.61807632446289 218.9172058105469 31.71624755859375 216.9790802001953 33.3611946105957 M 202.8991088867188 25.92420959472656 C 203.1186981201172 25.7158088684082 203.3421020507813 25.51541709899902 203.5695190429688 25.3228816986084 C 203.3228149414063 25.51493072509766 203.0960235595703 25.7156925201416 202.8991088867188 25.92420959472656 M 263.2960205078125 47.62630081176758 C 260.7676391601563 47.62630081176758 259.2551574707031 46.1689338684082 258.3693542480469 44.07502365112305 C 258.2238159179688 45.54648971557617 255.772216796875 46.49685668945313 254.5450439453125 46.49685668945313 C 251.2683715820313 46.49685668945313 251.0275726318359 43.36040115356445 251.0275726318359 43.36040115356445 C 251.0275726318359 43.43306732177734 249.4128265380859 46.47262191772461 246.5941467285156 46.47262191772461 C 245.2552032470703 46.47262191772461 244.6872863769531 45.84595489501953 244.6783447265625 45.01501083374023 C 243.921630859375 46.16935348510742 242.1072540283203 46.96537780761719 240.6743469238281 46.96537780761719 C 238.6703033447266 46.96537780761719 237.5282440185547 45.81119918823242 236.9246215820313 44.18107604980469 C 236.6744384765625 45.76837921142578 234.3433990478516 46.96537780761719 232.5853881835938 46.96537780761719 C 230.5431823730469 46.96537780761719 229.3960571289063 45.7667236328125 228.8017120361328 44.08737564086914 C 228.6438598632813 45.55188751220703 226.2024688720703 46.49685668945313 224.9793701171875 46.49685668945313 C 221.7019958496094 46.49685668945313 221.4612121582031 43.36040115356445 221.4612121582031 43.36040115356445 C 221.4612121582031 43.43306732177734 219.84716796875 46.47262191772461 217.0277709960938 46.47262191772461 C 215.6788024902344 46.47262191772461 215.1125793457031 45.83592224121094 215.1125793457031 44.99506759643555 C 215.1125793457031 43.40884399414063 217.1124420166016 41.13816452026367 219.6056823730469 41.13816452026367 C 220.1240386962891 41.13816452026367 220.3773040771484 41.41431045532227 220.3773040771484 41.81085586547852 C 220.3773040771484 42.15896606445313 220.0032958984375 42.20741271972656 219.5938720703125 42.20741271972656 C 218.2809906005859 42.20741271972656 217.4371948242188 43.85315704345703 217.4371948242188 44.30990982055664 C 217.4371948242188 44.47808837890625 217.5697174072266 44.58604431152344 217.8112030029297 44.58604431152344 C 218.8111419677734 44.58604431152344 220.3891143798828 43.08426666259766 221.3168640136719 41.57070922851563 C 221.3168640136719 41.57070922851563 221.6423187255859 40.58521270751953 222.3889770507813 40.58521270751953 C 223.0155792236328 40.58521270751953 223.0995483398438 40.99353408813477 223.0995483398438 41.30634307861328 L 223.0877380371094 41.77487564086914 C 223.0877380371094 42.91608810424805 223.3646087646484 44.94662094116211 225.0633239746094 44.94662094116211 C 226.2200775146484 44.94662094116211 227.1957244873047 44.22548675537109 227.5211791992188 43.93757629394531 C 227.8459320068359 43.6247673034668 228.1352844238281 43.51679992675781 228.3642883300781 43.51679992675781 C 228.4759216308594 43.51679992675781 228.57568359375 43.55419921875 228.65234375 43.61555480957031 C 228.3596038818359 42.57657623291016 228.2484130859375 41.3933219909668 228.2484130859375 40.2128791809082 C 228.2484130859375 38.79623413085938 228.4105529785156 37.3917121887207 228.5821533203125 36.29443359375 C 227.8389282226563 36.41127777099609 227.2226409912109 36.48816680908203 226.7960357666016 36.48816680908203 C 226.6274108886719 36.48816680908203 226.4823760986328 36.46394348144531 226.3623352050781 36.43972015380859 C 226.2658843994141 36.10337829589844 226.2173156738281 35.81547927856445 226.2173156738281 35.5988655090332 C 226.2173156738281 35.51679992675781 226.2248992919922 35.44306564331055 226.2397003173828 35.37628936767578 C 223.1531982421875 35.75442123413086 220.0253601074219 36.48816680908203 218.7070617675781 36.48816680908203 C 218.5384368896484 36.48816680908203 218.3941040039063 36.46394348144531 218.2733612060547 36.43972015380859 C 218.1769104003906 36.10337829589844 218.1290283203125 35.81547927856445 218.1290283203125 35.5988655090332 C 218.1290283203125 34.75799942016602 218.9242553710938 34.78222274780273 220.1288909912109 34.39743423461914 C 221.6950531005859 33.89291000366211 222.5381622314453 33.50812149047852 223.0683135986328 33.50812149047852 C 223.4777374267578 33.50812149047852 223.6949310302734 33.74896621704102 223.9114379882813 34.30123138427734 L 229.1643676757813 33.84446716308594 C 229.1643676757813 33.84446716308594 229.6223602294922 31.63401031494141 231.2842864990234 31.63401031494141 C 232.6700286865234 31.63401031494141 232.7664947509766 33.62854385375977 232.7664947509766 33.62854385375977 C 232.8481292724609 33.62854385375977 235.5966949462891 33.5080451965332 237.359619140625 33.47104263305664 C 237.5739440917969 32.8408203125 238.1447601318359 31.63401031494141 239.3732604980469 31.63401031494141 C 240.7583160400391 31.63401031494141 240.8547821044922 33.62854385375977 240.8547821044922 33.62854385375977 C 240.9512176513672 33.62854385375977 244.7698516845703 33.46037673950195 246.2881469726563 33.46037673950195 C 247.8543090820313 33.46037673950195 249.9506225585938 33.60432052612305 249.9506225585938 34.34967803955078 C 249.9506225585938 34.95038986206055 249.2275543212891 35.07012176513672 248.7695770263672 35.07012176513672 C 247.5892486572266 35.07012176513672 245.5893707275391 34.82997894287109 243.0593414306641 34.82997894287109 C 242.4929809570313 34.82997894287109 242.0926208496094 34.84392166137695 241.5643615722656 34.87149047851563 C 241.4066314697266 34.96995544433594 241.2056884765625 35.02303314208984 241.0111541748047 35.04892349243164 C 240.9920349121094 38.30039978027344 240.3349761962891 41.81229782104492 238.6259155273438 44.29814529418945 C 238.6259155273438 44.29814529418945 238.86669921875 45.59577560424805 240.7701110839844 45.59577560424805 C 242.8428344726563 45.59577560424805 243.4687652587891 43.52926635742188 244.5533599853516 43.52926635742188 C 244.8575744628906 43.52926635742188 244.9700622558594 43.64558792114258 245.0113677978516 43.75899887084961 C 245.6800689697266 42.43881225585938 247.2845611572266 41.13816452026367 249.1720581054688 41.13816452026367 C 249.6904144287109 41.13816452026367 249.9430084228516 41.41431045532227 249.9430084228516 41.81085586547852 C 249.9430084228516 42.15896606445313 249.5696563720703 42.20741271972656 249.1602630615234 42.20741271972656 C 247.8466796875 42.20741271972656 247.0035705566406 43.85315704345703 247.0035705566406 44.30990982055664 C 247.0035705566406 44.47808837890625 247.1361083984375 44.58604431152344 247.3768920898438 44.58604431152344 C 248.3768310546875 44.58604431152344 249.9554901123047 43.08426666259766 250.882568359375 41.57070922851563 C 250.882568359375 41.57070922851563 251.2079925537109 40.58521270751953 251.9553527832031 40.58521270751953 C 252.5812530517578 40.58521270751953 252.6659240722656 40.99353408813477 252.6659240722656 41.30634307861328 L 252.6534271240234 41.77487564086914 C 252.6534271240234 42.91608810424805 252.9309997558594 44.94662094116211 254.6296997070313 44.94662094116211 C 255.7857818603516 44.94662094116211 256.7621154785156 44.22548675537109 257.0868835449219 43.93757629394531 C 257.4123229980469 43.6247673034668 257.7016906738281 43.51679992675781 257.9306640625 43.51679992675781 C 258.0234069824219 43.51679992675781 258.1080932617188 43.54276657104492 258.1781311035156 43.58688735961914 C 257.406982421875 41.46046829223633 257.2006530761719 38.79058837890625 257.2006530761719 36.33175659179688 C 257.2006530761719 30.61252212524414 258.6821899414063 24.20882225036621 261.7902221679688 24.20882225036621 C 263.7179260253906 24.20882225036621 264.4284973144531 26.16736602783203 264.4284973144531 28.87057685852051 C 264.4284973144531 34.6860237121582 262.5133056640625 41.45028686523438 260.3565979003906 44.18949890136719 C 261.1518249511719 45.70374298095703 262.3321838378906 46.11205673217773 263.4410705566406 46.11205673217773 C 265.0308227539063 46.11205673217773 266.7295227050781 44.85042190551758 267.3922119140625 43.93757629394531 C 267.6212158203125 43.63722229003906 267.9341735839844 43.55278778076172 268.102783203125 43.55278778076172 C 268.3361511230469 43.55278778076172 268.4942932128906 43.63786697387695 268.5771179199219 43.75643157958984 C 268.5045166015625 43.46865463256836 268.4691772460938 43.1777458190918 268.4691772460938 42.89186477661133 C 268.4691772460938 41.41431045532227 269.3726501464844 39.59970092773438 271.010986328125 39.59970092773438 C 271.9026794433594 39.59970092773438 272.7582702636719 40.16443252563477 272.7582702636719 41.31811141967773 C 272.7582702636719 42.67594528198242 270.6737365722656 44.24971008300781 270.6737365722656 44.24971008300781 C 270.6737365722656 44.24971008300781 271.3725280761719 45.30717849731445 273.2641296386719 45.30717849731445 C 275.0953674316406 45.30717849731445 276.4686279296875 44.57428741455078 277.1431274414063 43.93757629394531 C 277.4685668945313 43.6247673034668 277.7815246582031 43.51679992675781 277.9987182617188 43.51679992675781 C 278.2637939453125 43.51679992675781 278.4442138671875 43.74518966674805 278.4442138671875 43.93757629394531 C 278.4442138671875 45.86014556884766 275.0350036621094 46.80896759033203 273.4209594726563 46.80896759033203 C 270.6343383789063 46.80896759033203 269.1296691894531 45.47582244873047 268.6452941894531 43.99225616455078 C 268.622314453125 45.68212127685547 265.4807739257813 47.62630081176758 263.2960205078125 47.62630081176758 Z M 236.8668365478516 35.16632080078125 C 235.6038055419922 35.20705413818359 234.2361755371094 35.37142181396484 232.9135894775391 35.57118988037109 C 232.8300323486328 38.67208862304688 232.1555328369141 41.94490051269531 230.5376434326172 44.29814529418945 C 230.5376434326172 44.29814529418945 230.7784118652344 45.59577560424805 232.6818237304688 45.59577560424805 C 234.7538757324219 45.59577560424805 235.3804779052734 43.52926635742188 236.4650573730469 43.52926635742188 C 236.5769348144531 43.52926635742188 236.6628112792969 43.54506683349609 236.7288360595703 43.5706672668457 C 236.4454650878906 42.54261016845703 236.3373718261719 41.37627792358398 236.3373718261719 40.2128791809082 C 236.3373718261719 38.2425651550293 236.6503448486328 36.2957763671875 236.8668365478516 35.16632080078125 Z M 270.8187866210938 41.31811141967773 C 270.2643432617188 41.31811141967773 269.9028015136719 42.09944534301758 269.9028015136719 42.59151077270508 C 269.9028015136719 42.71193313598633 269.9270935058594 42.81988906860352 269.9513854980469 42.90432357788086 C 270.0353393554688 42.85587692260742 271.1317443847656 41.95481109619141 271.1317443847656 41.61846542358398 C 271.1317443847656 41.48627853393555 270.9992065429688 41.31811141967773 270.8187866210938 41.31811141967773 Z M 261.8984985351563 25.99919891357422 C 260.284423828125 25.99919891357422 258.8626098632813 31.87415504455566 258.8626098632813 36.53592300415039 C 258.8626098632813 39.04743194580078 259.3448791503906 41.70289993286133 259.6460266113281 42.73615646362305 C 261.6333923339844 40.17688751220703 262.9345092773438 33.74896621704102 262.9345092773438 29.07474327087402 C 262.9345092773438 27.24837684631348 262.4772033691406 25.99919891357422 261.8984985351563 25.99919891357422 Z M 239.5294036865234 35.03413391113281 L 238.5780334472656 35.04658889770508 C 238.5780334472656 35.04658889770508 237.8070983886719 37.4370002746582 237.8070983886719 40.09245681762695 C 237.8070983886719 41.05373382568359 237.85498046875 41.52226638793945 238.0839691162109 42.45933151245117 C 238.86669921875 40.87379837036133 239.5418853759766 37.16085433959961 239.5418853759766 35.41892242431641 L 239.5294036865234 35.03413391113281 Z M 231.4433898925781 35.80775451660156 C 231.0252380371094 35.87833404541016 230.6183624267578 35.94911193847656 230.2278289794922 36.0169563293457 C 230.0040740966797 36.95756530761719 229.7181091308594 38.47589874267578 229.7181091308594 40.09245681762695 C 229.7181091308594 41.05373382568359 229.7666931152344 41.52226638793945 229.9956817626953 42.45933151245117 C 230.7242431640625 40.98354339599609 231.3590087890625 37.66481018066406 231.4433898925781 35.80775451660156 Z M 231.1517486572266 33.32818984985352 C 231.0323638916016 33.32818984985352 230.9291534423828 33.43658828735352 230.8578033447266 33.54005432128906 C 230.9677276611328 33.51919937133789 231.0666809082031 33.50812149047852 231.1566009521484 33.50812149047852 C 231.1962280273438 33.50812149047852 231.2340240478516 33.51039886474609 231.2702026367188 33.51495361328125 C 231.2429656982422 33.42391204833984 231.2023162841797 33.32818984985352 231.1517486572266 33.32818984985352 Z M 239.24072265625 33.32818984985352 C 239.1467132568359 33.32818984985352 239.0628967285156 33.39504241943359 238.9967193603516 33.47383117675781 C 239.1146850585938 33.47801208496094 239.2329559326172 33.4832649230957 239.3509979248047 33.48978805541992 C 239.32421875 33.40710067749023 239.2866516113281 33.32818984985352 239.24072265625 33.32818984985352 Z M 203.8461456298828 47.25673294067383 C 203.2979431152344 47.25673294067383 203.0238494873047 47.03596496582031 203.0238494873047 46.59443283081055 C 203.0238494873047 46.36327743530273 203.1293334960938 45.705810546875 203.3402862548828 44.62273406982422 L 205.0001220703125 36.35944366455078 C 202.3334197998047 35.76010894775391 200.9997100830078 34.87703323364258 200.9997100830078 33.71021270751953 C 200.9997100830078 33.46867752075195 201.0524444580078 33.15863418579102 201.1579284667969 32.78006744384766 C 202.2945556640625 33.71505355834961 203.6733703613281 34.3925895690918 205.2943572998047 34.81266784667969 L 206.3907470703125 29.35711097717285 C 206.5704650878906 28.46364402770996 206.6606750488281 27.82833290100098 206.6606750488281 27.44976615905762 C 206.6606750488281 27.08158874511719 206.5343780517578 26.7452449798584 206.2810974121094 26.44073295593262 C 207.6828155517578 25.91476631164551 208.658447265625 25.65177726745605 209.2059631347656 25.65177726745605 C 209.859619140625 25.65177726745605 210.1864624023438 26.03034400939941 210.1864624023438 26.78745460510254 C 210.1864624023438 26.96601104736328 210.0150604248047 27.88576698303223 209.6715850830078 29.54742240905762 L 208.579345703125 35.09780120849609 C 211.6089935302734 35.09780120849609 214.0862731933594 34.35175704956055 216.0111846923828 32.85896682739258 C 217.9361114501953 31.36617660522461 218.8992767333984 29.45261001586914 218.8992767333984 27.11826705932617 C 218.8992767333984 25.83586692810059 218.3954772949219 24.80329895019531 217.3886108398438 24.01988792419434 C 216.3824462890625 23.23646545410156 215.0514984130859 22.84475517272949 213.3965148925781 22.84475517272949 C 208.4634552001953 22.84475517272949 204.5046844482422 24.90573310852051 201.5215301513672 29.0269889831543 C 201.2689514160156 28.37506675720215 201.1419525146484 27.86501121520996 201.1419525146484 27.49683380126953 C 201.1419525146484 25.90992164611816 202.5679626464844 24.42958831787109 205.4192657470703 23.05791091918945 C 208.2705535888672 21.68623352050781 211.3563995361328 20.99970054626465 214.677490234375 20.99970054626465 C 219.7160034179688 20.99970054626465 222.2356109619141 22.85028839111328 222.2356109619141 26.55077743530273 C 222.2356109619141 29.25259971618652 220.9275817871094 31.61324501037598 218.3122253417969 33.63130950927734 C 215.6975402832031 35.65007781982422 212.6429138183594 36.65911102294922 209.1483612060547 36.65911102294922 L 208.2802734375 36.6431884765625 L 206.8702392578125 43.56663131713867 C 206.6669158935547 44.56528854370117 206.5656127929688 45.21167755126953 206.5656127929688 45.50580978393555 C 206.5656127929688 45.80063247680664 206.6343078613281 46.1162109375 206.77099609375 46.45255661010742 C 205.6857299804688 46.98822021484375 204.7107696533203 47.25673294067383 203.8461456298828 47.25673294067383 Z" stroke="none" fill="#f7d894"/>
    </g>
  </g>
</svg>
